<svg id="Layer_3" enable-background="new 0 0 64 64" height="512" viewBox="0 0 64 64" width="512" xmlns="http://www.w3.org/2000/svg"><path d="m48 19h-17v-2h17c1.654 0 3-1.346 3-3v-2h2v2c0 2.757-2.243 5-5 5z" fill="#b3b6c2"/><path d="m8 12v4c0 6.627 5.373 12 12 12 6.627 0 12-5.373 12-12v-4" fill="#9db5be"/><path d="m18.5 27.896c5.918-.739 10.5-5.778 10.5-11.896v-4h-21v4c0 6.118 4.582 11.157 10.5 11.896z" fill="#d1f2fd"/><circle cx="20" cy="20" fill="#f7c77a" r="4"/><path d="m6 8h28v4h-28z" fill="#65676e"/><path d="m6 8h25v4h-25z" fill="#868992"/><path d="m48 8h12v4h-12z" fill="#65676e"/><path d="m48 8h9v4h-9z" fill="#868992"/><path d="m2 2h60v6h-60z" fill="#868992"/><path d="m2 2h57v6h-57z" fill="#b3b6c2"/><path d="m55 62h-16c-1.657 0-3-1.343-3-3v-32c0-1.657 1.343-3 3-3h16c1.657 0 3 1.343 3 3v32c0 1.657-1.343 3-3 3z" fill="#63afe3"/><path d="m40 37c2.561 0 5.017-1.017 6.828-2.828l.172-.172.172.172c1.811 1.811 4.267 2.828 6.828 2.828 0 5.122-2.035 10.035-5.657 13.657l-1.343 1.343-1.343-1.343c-3.622-3.622-5.657-8.535-5.657-13.657z" fill="#d1f2fd"/><circle cx="47" cy="43" fill="#f7c77a" r="2"/><path d="m39 24 4 4h8l4-4z" fill="#a1a1aa"/><path d="m39 24 4 4h5l4-4z" fill="#d7d7e2"/><path d="m42 62v-2c0-1.105.895-2 2-2h6c1.105 0 2 .895 2 2v2" fill="#a1a1aa"/><path d="m47 58h-3c-1.105 0-2 .895-2 2v2h7v-2c0-1.105-.895-2-2-2z" fill="#d7d7e2"/><g fill="#b3b6c2"><path d="m19 19h2v2h-2z"/><path d="m20 34.891c-1.089 0-2.113-.419-2.884-1.179l1.404-1.424c.789.777 2.17.777 2.959 0l1.404 1.424c-.77.76-1.794 1.179-2.883 1.179z"/><path d="m20 38.945c-2.188 0-4.245-.84-5.793-2.366l1.404-1.424c1.171 1.154 2.729 1.79 4.389 1.79s3.218-.636 4.389-1.79l1.404 1.424c-1.548 1.526-3.606 2.366-5.793 2.366z"/><path d="m20 43c-3.286 0-6.376-1.262-8.702-3.554l1.404-1.424c1.949 1.92 4.541 2.978 7.298 2.978s5.349-1.058 7.298-2.978l1.404 1.424c-2.326 2.292-5.416 3.554-8.702 3.554z"/></g></svg>