<?xml version="1.0" encoding="iso-8859-1"?>
<!-- Generator: Adobe Illustrator 21.0.0, SVG Export Plug-In . SVG Version: 6.00 Build 0)  -->
<svg version="1.1" id="Capa_1" xmlns="http://www.w3.org/2000/svg" xmlns:xlink="http://www.w3.org/1999/xlink" x="0px" y="0px"
	 viewBox="0 0 512 512" style="enable-background:new 0 0 512 512;" xml:space="preserve">
<rect x="206.48" y="82.86" style="fill:#6F6571;" width="33.14" height="232"/>
<g>
	<path style="fill:#867E88;" d="M239.627,165.717h-16.572v-37.286c0-6.864,5.565-12.429,12.429-12.429h4.143V165.717z"/>
	<path style="fill:#867E88;" d="M239.627,314.863h-16.572v-37.286c0-6.864,5.565-12.429,12.429-12.429h4.143V314.863z"/>
</g>
<path style="fill:#AEA8AF;" d="M397.059,397.721H49.053c-9.152,0-16.572-7.419-16.572-16.572v-66.287
	c0-9.152,7.419-16.572,16.572-16.572h348.006c9.152,0,16.572,7.419,16.572,16.572v66.287
	C413.631,390.302,406.211,397.721,397.059,397.721z"/>
<g>
	<path style="fill:#6F6571;" d="M297.628,372.864c-4.58,0-8.286-3.71-8.286-8.286v-33.143c0-4.576,3.706-8.286,8.286-8.286
		c4.58,0,8.286,3.71,8.286,8.286v33.143C305.914,369.154,302.208,372.864,297.628,372.864z"/>
	<path style="fill:#6F6571;" d="M330.772,372.864c-4.58,0-8.286-3.71-8.286-8.286v-33.143c0-4.576,3.706-8.286,8.286-8.286
		c4.58,0,8.286,3.71,8.286,8.286v33.143C339.058,369.154,335.352,372.864,330.772,372.864z"/>
	<path style="fill:#6F6571;" d="M363.915,372.864c-4.58,0-8.286-3.71-8.286-8.286v-33.143c0-4.576,3.706-8.286,8.286-8.286
		c4.58,0,8.286,3.71,8.286,8.286v33.143C372.201,369.154,368.495,372.864,363.915,372.864z"/>
</g>
<path style="fill:#9C969E;" d="M49.053,348.006v-49.715c-9.152,0-16.572,7.419-16.572,16.572v66.287
	c0,9.152,7.419,16.572,16.572,16.572h348.006c9.152,0,16.572-7.42,16.572-16.572H82.196
	C63.891,381.15,49.053,366.311,49.053,348.006z"/>
<g>
	<path style="fill:#6F6571;" d="M264.485,339.72H82.196c-4.576,0-8.286-3.71-8.286-8.286l0,0c0-4.576,3.71-8.286,8.286-8.286
		h182.289c4.576,0,8.286,3.71,8.286,8.286l0,0C272.771,336.011,269.061,339.72,264.485,339.72z"/>
	<path style="fill:#6F6571;" d="M264.485,372.864H82.196c-4.576,0-8.286-3.71-8.286-8.286l0,0c0-4.576,3.71-8.286,8.286-8.286
		h182.289c4.576,0,8.286,3.71,8.286,8.286l0,0C272.771,369.154,269.061,372.864,264.485,372.864z"/>
</g>
<g>
	<path style="fill:#5D5360;" d="M173.34,339.72h-16.572c-4.576,0-8.286-3.71-8.286-8.286l0,0c0-4.576,3.71-8.286,8.286-8.286h16.572
		c4.576,0,8.286,3.71,8.286,8.286l0,0C181.626,336.011,177.917,339.72,173.34,339.72z"/>
	<path style="fill:#5D5360;" d="M173.34,372.864h-16.572c-4.576,0-8.286-3.71-8.286-8.286l0,0c0-4.576,3.71-8.286,8.286-8.286
		h16.572c4.576,0,8.286,3.71,8.286,8.286l0,0C181.626,369.154,177.917,372.864,173.34,372.864z"/>
	<path style="fill:#5D5360;" d="M264.485,339.72h-41.429c-4.576,0-8.286-3.71-8.286-8.286l0,0c0-4.576,3.71-8.286,8.286-8.286
		h41.429c4.576,0,8.286,3.71,8.286,8.286l0,0C272.771,336.011,269.061,339.72,264.485,339.72z"/>
	<path style="fill:#5D5360;" d="M264.485,372.864h-41.429c-4.576,0-8.286-3.71-8.286-8.286l0,0c0-4.576,3.71-8.286,8.286-8.286
		h41.429c4.576,0,8.286,3.71,8.286,8.286l0,0C272.771,369.154,269.061,372.864,264.485,372.864z"/>
</g>
<path style="fill:#AEA8AF;" d="M397.059,99.43H49.053c-9.152,0-16.572-7.419-16.572-16.572V16.572C32.481,7.419,39.9,0,49.053,0
	h348.006c9.152,0,16.572,7.419,16.572,16.572v66.287C413.631,92.011,406.211,99.43,397.059,99.43z"/>
<g>
	<path style="fill:#6F6571;" d="M297.628,74.573c-4.58,0-8.286-3.71-8.286-8.286V33.143c0-4.576,3.706-8.286,8.286-8.286
		c4.58,0,8.286,3.71,8.286,8.286v33.143C305.914,70.863,302.208,74.573,297.628,74.573z"/>
	<path style="fill:#6F6571;" d="M330.772,74.573c-4.58,0-8.286-3.71-8.286-8.286V33.143c0-4.576,3.706-8.286,8.286-8.286
		c4.58,0,8.286,3.71,8.286,8.286v33.143C339.058,70.863,335.352,74.573,330.772,74.573z"/>
	<path style="fill:#6F6571;" d="M363.915,74.573c-4.58,0-8.286-3.71-8.286-8.286V33.143c0-4.576,3.706-8.286,8.286-8.286
		c4.58,0,8.286,3.71,8.286,8.286v33.143C372.201,70.863,368.495,74.573,363.915,74.573z"/>
</g>
<path style="fill:#9C969E;" d="M49.053,49.715V0C39.9,0,32.481,7.419,32.481,16.572v66.287c0,9.152,7.419,16.572,16.572,16.572
	h348.006c9.152,0,16.572-7.42,16.572-16.572H82.196C63.891,82.859,49.053,68.02,49.053,49.715z"/>
<g>
	<path style="fill:#6F6571;" d="M264.485,41.429H82.196c-4.576,0-8.286-3.71-8.286-8.286l0,0c0-4.576,3.71-8.286,8.286-8.286
		h182.289c4.576,0,8.286,3.71,8.286,8.286l0,0C272.771,37.72,269.061,41.429,264.485,41.429z"/>
	<path style="fill:#6F6571;" d="M264.485,74.573H82.196c-4.576,0-8.286-3.71-8.286-8.286l0,0c0-4.576,3.71-8.286,8.286-8.286
		h182.289c4.576,0,8.286,3.71,8.286,8.286l0,0C272.771,70.863,269.061,74.573,264.485,74.573z"/>
</g>
<g>
	<path style="fill:#5D5360;" d="M173.34,41.429h-16.572c-4.576,0-8.286-3.71-8.286-8.286l0,0c0-4.576,3.71-8.286,8.286-8.286h16.572
		c4.576,0,8.286,3.71,8.286,8.286l0,0C181.626,37.72,177.917,41.429,173.34,41.429z"/>
	<path style="fill:#5D5360;" d="M173.34,74.573h-16.572c-4.576,0-8.286-3.71-8.286-8.286l0,0c0-4.576,3.71-8.286,8.286-8.286h16.572
		c4.576,0,8.286,3.71,8.286,8.286l0,0C181.626,70.863,177.917,74.573,173.34,74.573z"/>
	<path style="fill:#5D5360;" d="M264.485,41.429h-41.429c-4.576,0-8.286-3.71-8.286-8.286l0,0c0-4.576,3.71-8.286,8.286-8.286
		h41.429c4.576,0,8.286,3.71,8.286,8.286l0,0C272.771,37.72,269.061,41.429,264.485,41.429z"/>
	<path style="fill:#5D5360;" d="M264.485,74.573h-41.429c-4.576,0-8.286-3.71-8.286-8.286l0,0c0-4.576,3.71-8.286,8.286-8.286
		h41.429c4.576,0,8.286,3.71,8.286,8.286l0,0C272.771,70.863,269.061,74.573,264.485,74.573z"/>
</g>
<path style="fill:#CDF5A0;" d="M363.915,41.429L363.915,41.429c-4.576,0-8.286-3.71-8.286-8.286l0,0c0-4.576,3.71-8.286,8.286-8.286
	l0,0c4.576,0,8.286,3.71,8.286,8.286l0,0C372.201,37.72,368.491,41.429,363.915,41.429z"/>
<path style="fill:#FFE17D;" d="M330.772,41.429L330.772,41.429c-4.576,0-8.286-3.71-8.286-8.286l0,0c0-4.576,3.71-8.286,8.286-8.286
	l0,0c4.576,0,8.286,3.71,8.286,8.286l0,0C339.058,37.72,335.348,41.429,330.772,41.429z"/>
<path style="fill:#AEA8AF;" d="M397.059,248.576H49.053c-9.152,0-16.572-7.419-16.572-16.572v-66.287
	c0-9.152,7.419-16.572,16.572-16.572h348.006c9.152,0,16.572,7.419,16.572,16.572v66.287
	C413.631,241.156,406.211,248.576,397.059,248.576z"/>
<g>
	<path style="fill:#6F6571;" d="M297.628,223.718c-4.58,0-8.286-3.71-8.286-8.286v-33.143c0-4.576,3.706-8.286,8.286-8.286
		c4.58,0,8.286,3.71,8.286,8.286v33.143C305.914,220.008,302.208,223.718,297.628,223.718z"/>
	<path style="fill:#6F6571;" d="M330.772,223.718c-4.58,0-8.286-3.71-8.286-8.286v-33.143c0-4.576,3.706-8.286,8.286-8.286
		c4.58,0,8.286,3.71,8.286,8.286v33.143C339.058,220.008,335.352,223.718,330.772,223.718z"/>
	<path style="fill:#6F6571;" d="M363.915,223.718c-4.58,0-8.286-3.71-8.286-8.286v-33.143c0-4.576,3.706-8.286,8.286-8.286
		c4.58,0,8.286,3.71,8.286,8.286v33.143C372.201,220.008,368.495,223.718,363.915,223.718z"/>
</g>
<path style="fill:#9C969E;" d="M49.053,198.861v-49.715c-9.152,0-16.572,7.419-16.572,16.572v66.287
	c0,9.152,7.419,16.572,16.572,16.572h348.006c9.152,0,16.572-7.42,16.572-16.572H82.196
	C63.891,232.004,49.053,217.165,49.053,198.861z"/>
<g>
	<path style="fill:#6F6571;" d="M264.485,190.575H82.196c-4.576,0-8.286-3.71-8.286-8.286l0,0c0-4.576,3.71-8.286,8.286-8.286
		h182.289c4.576,0,8.286,3.71,8.286,8.286l0,0C272.771,186.865,269.061,190.575,264.485,190.575z"/>
	<path style="fill:#6F6571;" d="M264.485,223.718H82.196c-4.576,0-8.286-3.71-8.286-8.286l0,0c0-4.576,3.71-8.286,8.286-8.286
		h182.289c4.576,0,8.286,3.71,8.286,8.286l0,0C272.771,220.009,269.061,223.718,264.485,223.718z"/>
</g>
<g>
	<path style="fill:#5D5360;" d="M173.34,190.575h-16.572c-4.576,0-8.286-3.71-8.286-8.286l0,0c0-4.576,3.71-8.286,8.286-8.286
		h16.572c4.576,0,8.286,3.71,8.286,8.286l0,0C181.626,186.865,177.917,190.575,173.34,190.575z"/>
	<path style="fill:#5D5360;" d="M173.34,223.718h-16.572c-4.576,0-8.286-3.71-8.286-8.286l0,0c0-4.576,3.71-8.286,8.286-8.286
		h16.572c4.576,0,8.286,3.71,8.286,8.286l0,0C181.626,220.009,177.917,223.718,173.34,223.718z"/>
	<path style="fill:#5D5360;" d="M264.485,190.575h-41.429c-4.576,0-8.286-3.71-8.286-8.286l0,0c0-4.576,3.71-8.286,8.286-8.286
		h41.429c4.576,0,8.286,3.71,8.286,8.286l0,0C272.771,186.865,269.061,190.575,264.485,190.575z"/>
	<path style="fill:#5D5360;" d="M264.485,223.718h-41.429c-4.576,0-8.286-3.71-8.286-8.286l0,0c0-4.576,3.71-8.286,8.286-8.286
		h41.429c4.576,0,8.286,3.71,8.286,8.286l0,0C272.771,220.009,269.061,223.718,264.485,223.718z"/>
</g>
<path style="fill:#CDF5A0;" d="M363.915,207.147L363.915,207.147c-4.576,0-8.286-3.71-8.286-8.286l0,0
	c0-4.576,3.71-8.286,8.286-8.286l0,0c4.576,0,8.286,3.71,8.286,8.286l0,0C372.201,203.437,368.491,207.147,363.915,207.147z"/>
<g>
	<path style="fill:#FFE17D;" d="M330.772,207.147L330.772,207.147c-4.576,0-8.286-3.71-8.286-8.286l0,0
		c0-4.576,3.71-8.286,8.286-8.286l0,0c4.576,0,8.286,3.71,8.286,8.286l0,0C339.058,203.437,335.348,207.147,330.772,207.147z"/>
	<path style="fill:#FFE17D;" d="M383.11,325.208l-79.62,28.953c-3.531,1.284-5.783,4.757-5.426,8.497
		c2.131,22.346,14.544,98.518,85.963,147.882c2.816,1.946,6.676,1.946,9.492,0c71.419-49.364,83.833-125.537,85.963-147.882
		c0.357-3.741-1.895-7.213-5.426-8.497l-79.62-28.953C390.778,323.878,386.768,323.878,383.11,325.208z"/>
</g>
<path style="fill:#FFD164;" d="M332.928,343.456L303.49,354.16c-3.531,1.284-5.784,4.756-5.426,8.497
	c2.131,22.346,14.544,98.519,85.963,147.883c2.815,1.946,6.676,1.946,9.492,0c3.365-2.326,6.557-4.682,9.665-7.118
	C352.221,449.529,337.231,378.349,332.928,343.456z"/>
<path style="fill:#FFFFFF;" d="M381.523,445.883c-2.12,0-4.24-0.809-5.858-2.427l-29.001-29.001c-3.237-3.237-3.237-8.48,0-11.717
	s8.48-3.237,11.717,0l23.142,23.142l39.714-39.714c3.237-3.237,8.48-3.237,11.717,0s3.237,8.48,0,11.717l-45.572,45.572
	C385.763,445.074,383.643,445.883,381.523,445.883z"/>
<g>
</g>
<g>
</g>
<g>
</g>
<g>
</g>
<g>
</g>
<g>
</g>
<g>
</g>
<g>
</g>
<g>
</g>
<g>
</g>
<g>
</g>
<g>
</g>
<g>
</g>
<g>
</g>
<g>
</g>
</svg>
